<mxfile host="65bd71144e">
    <diagram id="NpJH77RFVWROeowFY9IR" name="Page-1">
        <mxGraphModel dx="842" dy="749" grid="1" gridSize="10" guides="1" tooltips="1" connect="1" arrows="1" fold="1" page="1" pageScale="1" pageWidth="1169" pageHeight="827" background="#FFFFFF" math="0" shadow="0">
            <root>
                <mxCell id="0"/>
                <mxCell id="1" parent="0"/>
                <mxCell id="16" value="" style="group;fillColor=#3399FF;strokeColor=#10739e;" parent="1" vertex="1" connectable="0">
                    <mxGeometry x="171" y="10" width="160" height="280" as="geometry"/>
                </mxCell>
                <mxCell id="9" value="" style="rounded=0;whiteSpace=wrap;html=1;labelBackgroundColor=none;fillStyle=auto;strokeWidth=4;fillColor=none;gradientColor=#FF33FF;" parent="16" vertex="1">
                    <mxGeometry width="160" height="280" as="geometry"/>
                </mxCell>
                <mxCell id="5" value="Api Server" style="rounded=1;whiteSpace=wrap;html=1;labelBackgroundColor=none;fillStyle=auto;fillColor=#bac8d3;strokeWidth=4;strokeColor=none;" parent="16" vertex="1">
                    <mxGeometry x="10" y="20" width="140" height="40" as="geometry"/>
                </mxCell>
                <mxCell id="10" value="Scheduler" style="rounded=1;whiteSpace=wrap;html=1;labelBackgroundColor=none;fillStyle=auto;fillColor=#bac8d3;strokeWidth=4;strokeColor=none;" parent="16" vertex="1">
                    <mxGeometry x="10" y="70" width="140" height="40" as="geometry"/>
                </mxCell>
                <mxCell id="11" value="Controller Manager" style="rounded=1;whiteSpace=wrap;html=1;labelBackgroundColor=none;fillStyle=auto;fillColor=#bac8d3;strokeWidth=4;strokeColor=none;" parent="16" vertex="1">
                    <mxGeometry x="10" y="120" width="140" height="40" as="geometry"/>
                </mxCell>
                <mxCell id="12" value="etcd" style="rounded=1;whiteSpace=wrap;html=1;labelBackgroundColor=none;fillStyle=auto;fillColor=#bac8d3;strokeWidth=4;strokeColor=none;" parent="16" vertex="1">
                    <mxGeometry x="10" y="170" width="140" height="40" as="geometry"/>
                </mxCell>
                <mxCell id="13" value="" style="sketch=0;html=1;dashed=0;whitespace=wrap;fillColor=#2875E2;strokeColor=#ffffff;points=[[0.005,0.63,0],[0.1,0.2,0],[0.9,0.2,0],[0.5,0,0],[0.995,0.63,0],[0.72,0.99,0],[0.5,1,0],[0.28,0.99,0]];verticalLabelPosition=bottom;align=center;verticalAlign=top;shape=mxgraph.kubernetes.icon;prIcon=master;labelBackgroundColor=none;fillStyle=auto;strokeWidth=4;" parent="16" vertex="1">
                    <mxGeometry x="100" y="222" width="50" height="48" as="geometry"/>
                </mxCell>
                <mxCell id="15" value="Master Node" style="rounded=0;whiteSpace=wrap;html=1;labelBackgroundColor=none;fillStyle=auto;strokeWidth=4;fillColor=none;strokeColor=none;" parent="16" vertex="1">
                    <mxGeometry x="30" y="236" width="70" height="20" as="geometry"/>
                </mxCell>
                <mxCell id="17" value="" style="group;fillColor=#3399FF;strokeColor=#10739e;" parent="1" vertex="1" connectable="0">
                    <mxGeometry x="425" y="10" width="160" height="280" as="geometry"/>
                </mxCell>
                <mxCell id="18" value="" style="rounded=0;whiteSpace=wrap;html=1;labelBackgroundColor=none;fillStyle=auto;strokeWidth=4;fillColor=none;gradientColor=#FF33FF;" parent="17" vertex="1">
                    <mxGeometry width="160" height="280" as="geometry"/>
                </mxCell>
                <mxCell id="19" value="Api Server" style="rounded=1;whiteSpace=wrap;html=1;labelBackgroundColor=none;fillStyle=auto;fillColor=#bac8d3;strokeWidth=4;strokeColor=none;" parent="17" vertex="1">
                    <mxGeometry x="10" y="20" width="140" height="40" as="geometry"/>
                </mxCell>
                <mxCell id="20" value="Scheduler" style="rounded=1;whiteSpace=wrap;html=1;labelBackgroundColor=none;fillStyle=auto;fillColor=#bac8d3;strokeWidth=4;strokeColor=none;" parent="17" vertex="1">
                    <mxGeometry x="10" y="70" width="140" height="40" as="geometry"/>
                </mxCell>
                <mxCell id="21" value="Controller Manager" style="rounded=1;whiteSpace=wrap;html=1;labelBackgroundColor=none;fillStyle=auto;fillColor=#bac8d3;strokeWidth=4;strokeColor=none;" parent="17" vertex="1">
                    <mxGeometry x="10" y="120" width="140" height="40" as="geometry"/>
                </mxCell>
                <mxCell id="22" value="etcd" style="rounded=1;whiteSpace=wrap;html=1;labelBackgroundColor=none;fillStyle=auto;fillColor=#bac8d3;strokeWidth=4;strokeColor=none;" parent="17" vertex="1">
                    <mxGeometry x="10" y="170" width="140" height="40" as="geometry"/>
                </mxCell>
                <mxCell id="24" value="" style="sketch=0;html=1;dashed=0;whitespace=wrap;fillColor=#2875E2;strokeColor=#ffffff;points=[[0.005,0.63,0],[0.1,0.2,0],[0.9,0.2,0],[0.5,0,0],[0.995,0.63,0],[0.72,0.99,0],[0.5,1,0],[0.28,0.99,0]];verticalLabelPosition=bottom;align=center;verticalAlign=top;shape=mxgraph.kubernetes.icon;prIcon=master;labelBackgroundColor=none;fillStyle=auto;strokeWidth=4;" parent="17" vertex="1">
                    <mxGeometry x="100" y="222" width="50" height="48" as="geometry"/>
                </mxCell>
                <mxCell id="25" value="Master Node" style="rounded=0;whiteSpace=wrap;html=1;labelBackgroundColor=none;fillStyle=auto;strokeWidth=4;fillColor=none;strokeColor=none;" parent="17" vertex="1">
                    <mxGeometry x="30" y="236" width="70" height="20" as="geometry"/>
                </mxCell>
                <mxCell id="28" value="" style="group;fillColor=#3399FF;strokeColor=#10739e;" parent="1" vertex="1" connectable="0">
                    <mxGeometry x="40" y="370" width="160" height="280" as="geometry"/>
                </mxCell>
                <mxCell id="29" value="" style="rounded=0;whiteSpace=wrap;html=1;labelBackgroundColor=none;fillStyle=auto;strokeWidth=4;fillColor=none;gradientColor=#FF33FF;" parent="28" vertex="1">
                    <mxGeometry width="160" height="280" as="geometry"/>
                </mxCell>
                <mxCell id="34" value="" style="edgeStyle=none;html=1;" parent="28" edge="1">
                    <mxGeometry relative="1" as="geometry">
                        <mxPoint x="105.71428571428567" y="222" as="sourcePoint"/>
                        <mxPoint x="105.71428571428567" y="222" as="targetPoint"/>
                    </mxGeometry>
                </mxCell>
                <mxCell id="36" value="Worker Node" style="rounded=0;whiteSpace=wrap;html=1;labelBackgroundColor=none;fillStyle=auto;strokeWidth=4;fillColor=none;strokeColor=none;" parent="28" vertex="1">
                    <mxGeometry x="30" y="236" width="70" height="20" as="geometry"/>
                </mxCell>
                <mxCell id="47" value="" style="sketch=0;html=1;dashed=0;whitespace=wrap;fillColor=#2875E2;strokeColor=#ffffff;points=[[0.005,0.63,0],[0.1,0.2,0],[0.9,0.2,0],[0.5,0,0],[0.995,0.63,0],[0.72,0.99,0],[0.5,1,0],[0.28,0.99,0]];verticalLabelPosition=bottom;align=center;verticalAlign=top;shape=mxgraph.kubernetes.icon;prIcon=node;labelBackgroundColor=none;fillStyle=auto;strokeWidth=4;" parent="28" vertex="1">
                    <mxGeometry x="100" y="222" width="50" height="48" as="geometry"/>
                </mxCell>
                <mxCell id="50" value="" style="group" parent="28" vertex="1" connectable="0">
                    <mxGeometry x="10" y="10" width="60" height="60" as="geometry"/>
                </mxCell>
                <mxCell id="30" value="" style="rounded=1;whiteSpace=wrap;html=1;labelBackgroundColor=none;fillStyle=auto;fillColor=#bac8d3;strokeWidth=4;strokeColor=none;align=left;" parent="50" vertex="1">
                    <mxGeometry width="60" height="60" as="geometry"/>
                </mxCell>
                <mxCell id="48" value="" style="sketch=0;html=1;dashed=0;whitespace=wrap;fillColor=#2875E2;strokeColor=#ffffff;points=[[0.005,0.63,0],[0.1,0.2,0],[0.9,0.2,0],[0.5,0,0],[0.995,0.63,0],[0.72,0.99,0],[0.5,1,0],[0.28,0.99,0]];verticalLabelPosition=bottom;align=center;verticalAlign=top;shape=mxgraph.kubernetes.icon;prIcon=pod;labelBackgroundColor=none;fillStyle=auto;strokeWidth=4;" parent="50" vertex="1">
                    <mxGeometry x="11.25" y="20" width="37.5" height="40" as="geometry"/>
                </mxCell>
                <mxCell id="49" value="&lt;font color=&quot;#3399ff&quot;&gt;POD&lt;/font&gt;" style="rounded=0;whiteSpace=wrap;html=1;labelBackgroundColor=none;fillStyle=auto;strokeWidth=4;fillColor=none;strokeColor=none;" parent="50" vertex="1">
                    <mxGeometry x="8.75" y="4" width="40" height="20" as="geometry"/>
                </mxCell>
                <mxCell id="51" value="" style="group" parent="28" vertex="1" connectable="0">
                    <mxGeometry x="90" y="10" width="60" height="60" as="geometry"/>
                </mxCell>
                <mxCell id="52" value="" style="rounded=1;whiteSpace=wrap;html=1;labelBackgroundColor=none;fillStyle=auto;fillColor=#bac8d3;strokeWidth=4;strokeColor=none;align=left;" parent="51" vertex="1">
                    <mxGeometry width="60" height="60" as="geometry"/>
                </mxCell>
                <mxCell id="53" value="" style="sketch=0;html=1;dashed=0;whitespace=wrap;fillColor=#2875E2;strokeColor=#ffffff;points=[[0.005,0.63,0],[0.1,0.2,0],[0.9,0.2,0],[0.5,0,0],[0.995,0.63,0],[0.72,0.99,0],[0.5,1,0],[0.28,0.99,0]];verticalLabelPosition=bottom;align=center;verticalAlign=top;shape=mxgraph.kubernetes.icon;prIcon=pod;labelBackgroundColor=none;fillStyle=auto;strokeWidth=4;" parent="51" vertex="1">
                    <mxGeometry x="11.25" y="20" width="37.5" height="40" as="geometry"/>
                </mxCell>
                <mxCell id="54" value="&lt;font color=&quot;#3399ff&quot;&gt;POD&lt;/font&gt;" style="rounded=0;whiteSpace=wrap;html=1;labelBackgroundColor=none;fillStyle=auto;strokeWidth=4;fillColor=none;strokeColor=none;" parent="51" vertex="1">
                    <mxGeometry x="8.75" y="4" width="40" height="20" as="geometry"/>
                </mxCell>
                <mxCell id="55" value="" style="group" parent="28" vertex="1" connectable="0">
                    <mxGeometry x="10" y="80" width="60" height="60" as="geometry"/>
                </mxCell>
                <mxCell id="56" value="" style="rounded=1;whiteSpace=wrap;html=1;labelBackgroundColor=none;fillStyle=auto;fillColor=#bac8d3;strokeWidth=4;strokeColor=none;align=left;" parent="55" vertex="1">
                    <mxGeometry width="60" height="60" as="geometry"/>
                </mxCell>
                <mxCell id="57" value="" style="sketch=0;html=1;dashed=0;whitespace=wrap;fillColor=#2875E2;strokeColor=#ffffff;points=[[0.005,0.63,0],[0.1,0.2,0],[0.9,0.2,0],[0.5,0,0],[0.995,0.63,0],[0.72,0.99,0],[0.5,1,0],[0.28,0.99,0]];verticalLabelPosition=bottom;align=center;verticalAlign=top;shape=mxgraph.kubernetes.icon;prIcon=pod;labelBackgroundColor=none;fillStyle=auto;strokeWidth=4;" parent="55" vertex="1">
                    <mxGeometry x="11.25" y="20" width="37.5" height="40" as="geometry"/>
                </mxCell>
                <mxCell id="58" value="&lt;font color=&quot;#3399ff&quot;&gt;POD&lt;/font&gt;" style="rounded=0;whiteSpace=wrap;html=1;labelBackgroundColor=none;fillStyle=auto;strokeWidth=4;fillColor=none;strokeColor=none;" parent="55" vertex="1">
                    <mxGeometry x="8.75" y="4" width="40" height="20" as="geometry"/>
                </mxCell>
                <mxCell id="59" value="" style="group" parent="28" vertex="1" connectable="0">
                    <mxGeometry x="90" y="80" width="60" height="60" as="geometry"/>
                </mxCell>
                <mxCell id="60" value="" style="rounded=1;whiteSpace=wrap;html=1;labelBackgroundColor=none;fillStyle=auto;fillColor=#bac8d3;strokeWidth=4;strokeColor=none;align=left;" parent="59" vertex="1">
                    <mxGeometry width="60" height="60" as="geometry"/>
                </mxCell>
                <mxCell id="61" value="" style="sketch=0;html=1;dashed=0;whitespace=wrap;fillColor=#2875E2;strokeColor=#ffffff;points=[[0.005,0.63,0],[0.1,0.2,0],[0.9,0.2,0],[0.5,0,0],[0.995,0.63,0],[0.72,0.99,0],[0.5,1,0],[0.28,0.99,0]];verticalLabelPosition=bottom;align=center;verticalAlign=top;shape=mxgraph.kubernetes.icon;prIcon=pod;labelBackgroundColor=none;fillStyle=auto;strokeWidth=4;" parent="59" vertex="1">
                    <mxGeometry x="11.25" y="20" width="37.5" height="40" as="geometry"/>
                </mxCell>
                <mxCell id="62" value="&lt;font color=&quot;#3399ff&quot;&gt;POD&lt;/font&gt;" style="rounded=0;whiteSpace=wrap;html=1;labelBackgroundColor=none;fillStyle=auto;strokeWidth=4;fillColor=none;strokeColor=none;" parent="59" vertex="1">
                    <mxGeometry x="8.75" y="4" width="40" height="20" as="geometry"/>
                </mxCell>
                <mxCell id="146" style="edgeStyle=none;html=1;exitX=1;exitY=0.25;exitDx=0;exitDy=0;entryX=0;entryY=0.25;entryDx=0;entryDy=0;fontColor=#3399FF;endArrow=none;endFill=0;strokeWidth=4;" parent="28" source="30" target="52" edge="1">
                    <mxGeometry relative="1" as="geometry"/>
                </mxCell>
                <mxCell id="147" style="edgeStyle=none;html=1;exitX=1;exitY=0.75;exitDx=0;exitDy=0;entryX=0;entryY=0.75;entryDx=0;entryDy=0;strokeWidth=4;fontColor=#3399FF;endArrow=none;endFill=0;" parent="28" source="30" target="52" edge="1">
                    <mxGeometry relative="1" as="geometry"/>
                </mxCell>
                <mxCell id="148" style="edgeStyle=none;html=1;exitX=1;exitY=0.25;exitDx=0;exitDy=0;entryX=0;entryY=0.25;entryDx=0;entryDy=0;strokeWidth=4;fontColor=#3399FF;endArrow=none;endFill=0;" parent="28" source="56" target="60" edge="1">
                    <mxGeometry relative="1" as="geometry"/>
                </mxCell>
                <mxCell id="149" style="edgeStyle=none;html=1;exitX=1;exitY=0.75;exitDx=0;exitDy=0;entryX=0;entryY=0.75;entryDx=0;entryDy=0;strokeWidth=4;fontColor=#3399FF;endArrow=none;endFill=0;" parent="28" source="56" target="60" edge="1">
                    <mxGeometry relative="1" as="geometry"/>
                </mxCell>
                <mxCell id="63" value="" style="group" parent="1" vertex="1" connectable="0">
                    <mxGeometry x="90" y="520" width="60" height="60" as="geometry"/>
                </mxCell>
                <mxCell id="64" value="" style="rounded=1;whiteSpace=wrap;html=1;labelBackgroundColor=none;fillStyle=auto;fillColor=#bac8d3;strokeWidth=4;strokeColor=none;align=left;" parent="63" vertex="1">
                    <mxGeometry width="60" height="60" as="geometry"/>
                </mxCell>
                <mxCell id="65" value="" style="sketch=0;html=1;dashed=0;whitespace=wrap;fillColor=#2875E2;strokeColor=#ffffff;points=[[0.005,0.63,0],[0.1,0.2,0],[0.9,0.2,0],[0.5,0,0],[0.995,0.63,0],[0.72,0.99,0],[0.5,1,0],[0.28,0.99,0]];verticalLabelPosition=bottom;align=center;verticalAlign=top;shape=mxgraph.kubernetes.icon;prIcon=pod;labelBackgroundColor=none;fillStyle=auto;strokeWidth=4;" parent="63" vertex="1">
                    <mxGeometry x="11.25" y="20" width="37.5" height="40" as="geometry"/>
                </mxCell>
                <mxCell id="66" value="&lt;font color=&quot;#3399ff&quot;&gt;POD&lt;/font&gt;" style="rounded=0;whiteSpace=wrap;html=1;labelBackgroundColor=none;fillStyle=auto;strokeWidth=4;fillColor=none;strokeColor=none;" parent="63" vertex="1">
                    <mxGeometry x="8.75" y="4" width="40" height="20" as="geometry"/>
                </mxCell>
                <mxCell id="67" value="" style="group;fillColor=#3399FF;strokeColor=#10739e;" parent="1" vertex="1" connectable="0">
                    <mxGeometry x="210" y="370" width="160" height="280" as="geometry"/>
                </mxCell>
                <mxCell id="68" value="" style="rounded=0;whiteSpace=wrap;html=1;labelBackgroundColor=none;fillStyle=auto;strokeWidth=4;fillColor=none;gradientColor=#FF33FF;" parent="67" vertex="1">
                    <mxGeometry width="160" height="280" as="geometry"/>
                </mxCell>
                <mxCell id="69" value="" style="edgeStyle=none;html=1;" parent="67" edge="1">
                    <mxGeometry relative="1" as="geometry">
                        <mxPoint x="105.71428571428567" y="222" as="sourcePoint"/>
                        <mxPoint x="105.71428571428567" y="222" as="targetPoint"/>
                    </mxGeometry>
                </mxCell>
                <mxCell id="70" value="Worker Node" style="rounded=0;whiteSpace=wrap;html=1;labelBackgroundColor=none;fillStyle=auto;strokeWidth=4;fillColor=none;strokeColor=none;" parent="67" vertex="1">
                    <mxGeometry x="30" y="236" width="70" height="20" as="geometry"/>
                </mxCell>
                <mxCell id="71" value="" style="sketch=0;html=1;dashed=0;whitespace=wrap;fillColor=#2875E2;strokeColor=#ffffff;points=[[0.005,0.63,0],[0.1,0.2,0],[0.9,0.2,0],[0.5,0,0],[0.995,0.63,0],[0.72,0.99,0],[0.5,1,0],[0.28,0.99,0]];verticalLabelPosition=bottom;align=center;verticalAlign=top;shape=mxgraph.kubernetes.icon;prIcon=node;labelBackgroundColor=none;fillStyle=auto;strokeWidth=4;" parent="67" vertex="1">
                    <mxGeometry x="100" y="222" width="50" height="48" as="geometry"/>
                </mxCell>
                <mxCell id="72" value="" style="group" parent="67" vertex="1" connectable="0">
                    <mxGeometry x="10" y="10" width="60" height="60" as="geometry"/>
                </mxCell>
                <mxCell id="73" value="" style="rounded=1;whiteSpace=wrap;html=1;labelBackgroundColor=none;fillStyle=auto;fillColor=#bac8d3;strokeWidth=4;strokeColor=none;align=left;" parent="72" vertex="1">
                    <mxGeometry width="60" height="60" as="geometry"/>
                </mxCell>
                <mxCell id="74" value="" style="sketch=0;html=1;dashed=0;whitespace=wrap;fillColor=#2875E2;strokeColor=#ffffff;points=[[0.005,0.63,0],[0.1,0.2,0],[0.9,0.2,0],[0.5,0,0],[0.995,0.63,0],[0.72,0.99,0],[0.5,1,0],[0.28,0.99,0]];verticalLabelPosition=bottom;align=center;verticalAlign=top;shape=mxgraph.kubernetes.icon;prIcon=pod;labelBackgroundColor=none;fillStyle=auto;strokeWidth=4;" parent="72" vertex="1">
                    <mxGeometry x="11.25" y="20" width="37.5" height="40" as="geometry"/>
                </mxCell>
                <mxCell id="75" value="&lt;font color=&quot;#3399ff&quot;&gt;POD&lt;/font&gt;" style="rounded=0;whiteSpace=wrap;html=1;labelBackgroundColor=none;fillStyle=auto;strokeWidth=4;fillColor=none;strokeColor=none;" parent="72" vertex="1">
                    <mxGeometry x="8.75" y="4" width="40" height="20" as="geometry"/>
                </mxCell>
                <mxCell id="76" value="" style="group" parent="67" vertex="1" connectable="0">
                    <mxGeometry x="90" y="10" width="60" height="60" as="geometry"/>
                </mxCell>
                <mxCell id="77" value="" style="rounded=1;whiteSpace=wrap;html=1;labelBackgroundColor=none;fillStyle=auto;fillColor=#bac8d3;strokeWidth=4;strokeColor=none;align=left;" parent="76" vertex="1">
                    <mxGeometry width="60" height="60" as="geometry"/>
                </mxCell>
                <mxCell id="78" value="" style="sketch=0;html=1;dashed=0;whitespace=wrap;fillColor=#2875E2;strokeColor=#ffffff;points=[[0.005,0.63,0],[0.1,0.2,0],[0.9,0.2,0],[0.5,0,0],[0.995,0.63,0],[0.72,0.99,0],[0.5,1,0],[0.28,0.99,0]];verticalLabelPosition=bottom;align=center;verticalAlign=top;shape=mxgraph.kubernetes.icon;prIcon=pod;labelBackgroundColor=none;fillStyle=auto;strokeWidth=4;" parent="76" vertex="1">
                    <mxGeometry x="11.25" y="20" width="37.5" height="40" as="geometry"/>
                </mxCell>
                <mxCell id="79" value="&lt;font color=&quot;#3399ff&quot;&gt;POD&lt;/font&gt;" style="rounded=0;whiteSpace=wrap;html=1;labelBackgroundColor=none;fillStyle=auto;strokeWidth=4;fillColor=none;strokeColor=none;" parent="76" vertex="1">
                    <mxGeometry x="8.75" y="4" width="40" height="20" as="geometry"/>
                </mxCell>
                <mxCell id="80" value="" style="group" parent="67" vertex="1" connectable="0">
                    <mxGeometry x="50" y="110" width="60" height="60" as="geometry"/>
                </mxCell>
                <mxCell id="81" value="" style="rounded=1;whiteSpace=wrap;html=1;labelBackgroundColor=none;fillStyle=auto;fillColor=#bac8d3;strokeWidth=4;strokeColor=none;align=left;" parent="80" vertex="1">
                    <mxGeometry width="60" height="60" as="geometry"/>
                </mxCell>
                <mxCell id="82" value="" style="sketch=0;html=1;dashed=0;whitespace=wrap;fillColor=#2875E2;strokeColor=#ffffff;points=[[0.005,0.63,0],[0.1,0.2,0],[0.9,0.2,0],[0.5,0,0],[0.995,0.63,0],[0.72,0.99,0],[0.5,1,0],[0.28,0.99,0]];verticalLabelPosition=bottom;align=center;verticalAlign=top;shape=mxgraph.kubernetes.icon;prIcon=pod;labelBackgroundColor=none;fillStyle=auto;strokeWidth=4;" parent="80" vertex="1">
                    <mxGeometry x="11.25" y="20" width="37.5" height="40" as="geometry"/>
                </mxCell>
                <mxCell id="83" value="&lt;font color=&quot;#3399ff&quot;&gt;POD&lt;/font&gt;" style="rounded=0;whiteSpace=wrap;html=1;labelBackgroundColor=none;fillStyle=auto;strokeWidth=4;fillColor=none;strokeColor=none;" parent="80" vertex="1">
                    <mxGeometry x="8.75" y="4" width="40" height="20" as="geometry"/>
                </mxCell>
                <mxCell id="150" style="edgeStyle=none;html=1;exitX=1;exitY=0.25;exitDx=0;exitDy=0;entryX=0;entryY=0.25;entryDx=0;entryDy=0;strokeWidth=4;fontColor=#3399FF;endArrow=none;endFill=0;" parent="67" source="73" target="77" edge="1">
                    <mxGeometry relative="1" as="geometry"/>
                </mxCell>
                <mxCell id="152" style="edgeStyle=none;html=1;exitX=1;exitY=0.75;exitDx=0;exitDy=0;entryX=0;entryY=0.75;entryDx=0;entryDy=0;strokeWidth=4;fontColor=#3399FF;endArrow=none;endFill=0;" parent="67" source="73" target="77" edge="1">
                    <mxGeometry relative="1" as="geometry"/>
                </mxCell>
                <mxCell id="155" style="edgeStyle=none;html=1;exitX=0;exitY=0.5;exitDx=0;exitDy=0;entryX=0;entryY=0.5;entryDx=0;entryDy=0;strokeWidth=4;fontColor=#3399FF;endArrow=none;endFill=0;" parent="67" source="81" target="68" edge="1">
                    <mxGeometry relative="1" as="geometry"/>
                </mxCell>
                <mxCell id="156" style="edgeStyle=none;html=1;exitX=1;exitY=0.5;exitDx=0;exitDy=0;strokeWidth=4;fontColor=#3399FF;endArrow=none;endFill=0;" parent="67" source="81" target="68" edge="1">
                    <mxGeometry relative="1" as="geometry"/>
                </mxCell>
                <mxCell id="92" value="" style="group;fillColor=#3399FF;strokeColor=#10739e;" parent="1" vertex="1" connectable="0">
                    <mxGeometry x="380" y="370" width="160" height="280" as="geometry"/>
                </mxCell>
                <mxCell id="93" value="" style="rounded=0;whiteSpace=wrap;html=1;labelBackgroundColor=none;fillStyle=auto;strokeWidth=4;fillColor=none;gradientColor=#FF33FF;" parent="92" vertex="1">
                    <mxGeometry width="160" height="280" as="geometry"/>
                </mxCell>
                <mxCell id="94" value="" style="edgeStyle=none;html=1;" parent="92" edge="1">
                    <mxGeometry relative="1" as="geometry">
                        <mxPoint x="105.71428571428567" y="222" as="sourcePoint"/>
                        <mxPoint x="105.71428571428567" y="222" as="targetPoint"/>
                    </mxGeometry>
                </mxCell>
                <mxCell id="95" value="Worker Node" style="rounded=0;whiteSpace=wrap;html=1;labelBackgroundColor=none;fillStyle=auto;strokeWidth=4;fillColor=none;strokeColor=none;" parent="92" vertex="1">
                    <mxGeometry x="30" y="236" width="70" height="20" as="geometry"/>
                </mxCell>
                <mxCell id="96" value="" style="sketch=0;html=1;dashed=0;whitespace=wrap;fillColor=#2875E2;strokeColor=#ffffff;points=[[0.005,0.63,0],[0.1,0.2,0],[0.9,0.2,0],[0.5,0,0],[0.995,0.63,0],[0.72,0.99,0],[0.5,1,0],[0.28,0.99,0]];verticalLabelPosition=bottom;align=center;verticalAlign=top;shape=mxgraph.kubernetes.icon;prIcon=node;labelBackgroundColor=none;fillStyle=auto;strokeWidth=4;" parent="92" vertex="1">
                    <mxGeometry x="100" y="222" width="50" height="48" as="geometry"/>
                </mxCell>
                <mxCell id="97" value="" style="group" parent="92" vertex="1" connectable="0">
                    <mxGeometry x="10" y="10" width="60" height="60" as="geometry"/>
                </mxCell>
                <mxCell id="98" value="" style="rounded=1;whiteSpace=wrap;html=1;labelBackgroundColor=none;fillStyle=auto;fillColor=#bac8d3;strokeWidth=4;strokeColor=none;align=left;" parent="97" vertex="1">
                    <mxGeometry width="60" height="60" as="geometry"/>
                </mxCell>
                <mxCell id="99" value="" style="sketch=0;html=1;dashed=0;whitespace=wrap;fillColor=#2875E2;strokeColor=#ffffff;points=[[0.005,0.63,0],[0.1,0.2,0],[0.9,0.2,0],[0.5,0,0],[0.995,0.63,0],[0.72,0.99,0],[0.5,1,0],[0.28,0.99,0]];verticalLabelPosition=bottom;align=center;verticalAlign=top;shape=mxgraph.kubernetes.icon;prIcon=pod;labelBackgroundColor=none;fillStyle=auto;strokeWidth=4;" parent="97" vertex="1">
                    <mxGeometry x="11.25" y="20" width="37.5" height="40" as="geometry"/>
                </mxCell>
                <mxCell id="100" value="&lt;font color=&quot;#3399ff&quot;&gt;POD&lt;/font&gt;" style="rounded=0;whiteSpace=wrap;html=1;labelBackgroundColor=none;fillStyle=auto;strokeWidth=4;fillColor=none;strokeColor=none;" parent="97" vertex="1">
                    <mxGeometry x="8.75" y="4" width="40" height="20" as="geometry"/>
                </mxCell>
                <mxCell id="101" value="" style="group" parent="92" vertex="1" connectable="0">
                    <mxGeometry x="90" y="10" width="60" height="60" as="geometry"/>
                </mxCell>
                <mxCell id="102" value="" style="rounded=1;whiteSpace=wrap;html=1;labelBackgroundColor=none;fillStyle=auto;fillColor=#bac8d3;strokeWidth=4;strokeColor=none;align=left;" parent="101" vertex="1">
                    <mxGeometry width="60" height="60" as="geometry"/>
                </mxCell>
                <mxCell id="103" value="" style="sketch=0;html=1;dashed=0;whitespace=wrap;fillColor=#2875E2;strokeColor=#ffffff;points=[[0.005,0.63,0],[0.1,0.2,0],[0.9,0.2,0],[0.5,0,0],[0.995,0.63,0],[0.72,0.99,0],[0.5,1,0],[0.28,0.99,0]];verticalLabelPosition=bottom;align=center;verticalAlign=top;shape=mxgraph.kubernetes.icon;prIcon=pod;labelBackgroundColor=none;fillStyle=auto;strokeWidth=4;" parent="101" vertex="1">
                    <mxGeometry x="11.25" y="20" width="37.5" height="40" as="geometry"/>
                </mxCell>
                <mxCell id="104" value="&lt;font color=&quot;#3399ff&quot;&gt;POD&lt;/font&gt;" style="rounded=0;whiteSpace=wrap;html=1;labelBackgroundColor=none;fillStyle=auto;strokeWidth=4;fillColor=none;strokeColor=none;" parent="101" vertex="1">
                    <mxGeometry x="8.75" y="4" width="40" height="20" as="geometry"/>
                </mxCell>
                <mxCell id="105" value="" style="group" parent="92" vertex="1" connectable="0">
                    <mxGeometry x="10" y="80" width="60" height="60" as="geometry"/>
                </mxCell>
                <mxCell id="106" value="" style="rounded=1;whiteSpace=wrap;html=1;labelBackgroundColor=none;fillStyle=auto;fillColor=#bac8d3;strokeWidth=4;strokeColor=none;align=left;" parent="105" vertex="1">
                    <mxGeometry width="60" height="60" as="geometry"/>
                </mxCell>
                <mxCell id="107" value="" style="sketch=0;html=1;dashed=0;whitespace=wrap;fillColor=#2875E2;strokeColor=#ffffff;points=[[0.005,0.63,0],[0.1,0.2,0],[0.9,0.2,0],[0.5,0,0],[0.995,0.63,0],[0.72,0.99,0],[0.5,1,0],[0.28,0.99,0]];verticalLabelPosition=bottom;align=center;verticalAlign=top;shape=mxgraph.kubernetes.icon;prIcon=pod;labelBackgroundColor=none;fillStyle=auto;strokeWidth=4;" parent="105" vertex="1">
                    <mxGeometry x="11.25" y="20" width="37.5" height="40" as="geometry"/>
                </mxCell>
                <mxCell id="108" value="&lt;font color=&quot;#3399ff&quot;&gt;POD&lt;/font&gt;" style="rounded=0;whiteSpace=wrap;html=1;labelBackgroundColor=none;fillStyle=auto;strokeWidth=4;fillColor=none;strokeColor=none;" parent="105" vertex="1">
                    <mxGeometry x="8.75" y="4" width="40" height="20" as="geometry"/>
                </mxCell>
                <mxCell id="109" value="" style="group" parent="92" vertex="1" connectable="0">
                    <mxGeometry x="90" y="80" width="60" height="60" as="geometry"/>
                </mxCell>
                <mxCell id="110" value="" style="rounded=1;whiteSpace=wrap;html=1;labelBackgroundColor=none;fillStyle=auto;fillColor=#bac8d3;strokeWidth=4;strokeColor=none;align=left;" parent="109" vertex="1">
                    <mxGeometry width="60" height="60" as="geometry"/>
                </mxCell>
                <mxCell id="111" value="" style="sketch=0;html=1;dashed=0;whitespace=wrap;fillColor=#2875E2;strokeColor=#ffffff;points=[[0.005,0.63,0],[0.1,0.2,0],[0.9,0.2,0],[0.5,0,0],[0.995,0.63,0],[0.72,0.99,0],[0.5,1,0],[0.28,0.99,0]];verticalLabelPosition=bottom;align=center;verticalAlign=top;shape=mxgraph.kubernetes.icon;prIcon=pod;labelBackgroundColor=none;fillStyle=auto;strokeWidth=4;" parent="109" vertex="1">
                    <mxGeometry x="11.25" y="20" width="37.5" height="40" as="geometry"/>
                </mxCell>
                <mxCell id="112" value="&lt;font color=&quot;#3399ff&quot;&gt;POD&lt;/font&gt;" style="rounded=0;whiteSpace=wrap;html=1;labelBackgroundColor=none;fillStyle=auto;strokeWidth=4;fillColor=none;strokeColor=none;" parent="109" vertex="1">
                    <mxGeometry x="8.75" y="4" width="40" height="20" as="geometry"/>
                </mxCell>
                <mxCell id="162" style="edgeStyle=none;html=1;exitX=1;exitY=0.25;exitDx=0;exitDy=0;entryX=0;entryY=0.25;entryDx=0;entryDy=0;strokeWidth=4;fontColor=#3399FF;endArrow=none;endFill=0;" parent="92" source="98" target="102" edge="1">
                    <mxGeometry relative="1" as="geometry"/>
                </mxCell>
                <mxCell id="164" style="edgeStyle=none;html=1;exitX=1;exitY=0.25;exitDx=0;exitDy=0;entryX=0;entryY=0.25;entryDx=0;entryDy=0;strokeWidth=4;fontColor=#3399FF;endArrow=none;endFill=0;" parent="92" source="106" target="110" edge="1">
                    <mxGeometry relative="1" as="geometry"/>
                </mxCell>
                <mxCell id="113" value="" style="group" parent="1" vertex="1" connectable="0">
                    <mxGeometry x="430" y="520" width="60" height="60" as="geometry"/>
                </mxCell>
                <mxCell id="114" value="" style="rounded=1;whiteSpace=wrap;html=1;labelBackgroundColor=none;fillStyle=auto;fillColor=#bac8d3;strokeWidth=4;strokeColor=none;align=left;" parent="113" vertex="1">
                    <mxGeometry width="60" height="60" as="geometry"/>
                </mxCell>
                <mxCell id="115" value="" style="sketch=0;html=1;dashed=0;whitespace=wrap;fillColor=#2875E2;strokeColor=#ffffff;points=[[0.005,0.63,0],[0.1,0.2,0],[0.9,0.2,0],[0.5,0,0],[0.995,0.63,0],[0.72,0.99,0],[0.5,1,0],[0.28,0.99,0]];verticalLabelPosition=bottom;align=center;verticalAlign=top;shape=mxgraph.kubernetes.icon;prIcon=pod;labelBackgroundColor=none;fillStyle=auto;strokeWidth=4;" parent="113" vertex="1">
                    <mxGeometry x="11.25" y="20" width="37.5" height="40" as="geometry"/>
                </mxCell>
                <mxCell id="116" value="&lt;font color=&quot;#3399ff&quot;&gt;POD&lt;/font&gt;" style="rounded=0;whiteSpace=wrap;html=1;labelBackgroundColor=none;fillStyle=auto;strokeWidth=4;fillColor=none;strokeColor=none;" parent="113" vertex="1">
                    <mxGeometry x="8.75" y="4" width="40" height="20" as="geometry"/>
                </mxCell>
                <mxCell id="117" value="" style="group;fillColor=#3399FF;strokeColor=#10739e;" parent="1" vertex="1" connectable="0">
                    <mxGeometry x="550" y="370" width="160" height="280" as="geometry"/>
                </mxCell>
                <mxCell id="158" style="edgeStyle=none;html=1;exitX=0;exitY=0.5;exitDx=0;exitDy=0;entryX=0;entryY=0.5;entryDx=0;entryDy=0;strokeWidth=4;fontColor=#3399FF;endArrow=none;endFill=0;" parent="117" source="118" target="139" edge="1">
                    <mxGeometry relative="1" as="geometry"/>
                </mxCell>
                <mxCell id="118" value="" style="rounded=0;whiteSpace=wrap;html=1;labelBackgroundColor=none;fillStyle=auto;strokeWidth=4;fillColor=none;gradientColor=#FF33FF;" parent="117" vertex="1">
                    <mxGeometry width="160" height="280" as="geometry"/>
                </mxCell>
                <mxCell id="119" value="" style="edgeStyle=none;html=1;" parent="117" edge="1">
                    <mxGeometry relative="1" as="geometry">
                        <mxPoint x="105.71428571428567" y="222" as="sourcePoint"/>
                        <mxPoint x="105.71428571428567" y="222" as="targetPoint"/>
                    </mxGeometry>
                </mxCell>
                <mxCell id="120" value="Worker Node" style="rounded=0;whiteSpace=wrap;html=1;labelBackgroundColor=none;fillStyle=auto;strokeWidth=4;fillColor=none;strokeColor=none;" parent="117" vertex="1">
                    <mxGeometry x="30" y="236" width="70" height="20" as="geometry"/>
                </mxCell>
                <mxCell id="121" value="" style="sketch=0;html=1;dashed=0;whitespace=wrap;fillColor=#2875E2;strokeColor=#ffffff;points=[[0.005,0.63,0],[0.1,0.2,0],[0.9,0.2,0],[0.5,0,0],[0.995,0.63,0],[0.72,0.99,0],[0.5,1,0],[0.28,0.99,0]];verticalLabelPosition=bottom;align=center;verticalAlign=top;shape=mxgraph.kubernetes.icon;prIcon=node;labelBackgroundColor=none;fillStyle=auto;strokeWidth=4;" parent="117" vertex="1">
                    <mxGeometry x="100" y="222" width="50" height="48" as="geometry"/>
                </mxCell>
                <mxCell id="122" value="" style="group" parent="117" vertex="1" connectable="0">
                    <mxGeometry x="10" y="10" width="60" height="60" as="geometry"/>
                </mxCell>
                <mxCell id="123" value="" style="rounded=1;whiteSpace=wrap;html=1;labelBackgroundColor=none;fillStyle=auto;fillColor=#bac8d3;strokeWidth=4;strokeColor=none;align=left;" parent="122" vertex="1">
                    <mxGeometry width="60" height="60" as="geometry"/>
                </mxCell>
                <mxCell id="124" value="" style="sketch=0;html=1;dashed=0;whitespace=wrap;fillColor=#2875E2;strokeColor=#ffffff;points=[[0.005,0.63,0],[0.1,0.2,0],[0.9,0.2,0],[0.5,0,0],[0.995,0.63,0],[0.72,0.99,0],[0.5,1,0],[0.28,0.99,0]];verticalLabelPosition=bottom;align=center;verticalAlign=top;shape=mxgraph.kubernetes.icon;prIcon=pod;labelBackgroundColor=none;fillStyle=auto;strokeWidth=4;" parent="122" vertex="1">
                    <mxGeometry x="11.25" y="20" width="37.5" height="40" as="geometry"/>
                </mxCell>
                <mxCell id="125" value="&lt;font color=&quot;#3399ff&quot;&gt;POD&lt;/font&gt;" style="rounded=0;whiteSpace=wrap;html=1;labelBackgroundColor=none;fillStyle=auto;strokeWidth=4;fillColor=none;strokeColor=none;" parent="122" vertex="1">
                    <mxGeometry x="8.75" y="4" width="40" height="20" as="geometry"/>
                </mxCell>
                <mxCell id="126" value="" style="group" parent="117" vertex="1" connectable="0">
                    <mxGeometry x="90" y="10" width="60" height="60" as="geometry"/>
                </mxCell>
                <mxCell id="127" value="" style="rounded=1;whiteSpace=wrap;html=1;labelBackgroundColor=none;fillStyle=auto;fillColor=#bac8d3;strokeWidth=4;strokeColor=none;align=left;" parent="126" vertex="1">
                    <mxGeometry width="60" height="60" as="geometry"/>
                </mxCell>
                <mxCell id="128" value="" style="sketch=0;html=1;dashed=0;whitespace=wrap;fillColor=#2875E2;strokeColor=#ffffff;points=[[0.005,0.63,0],[0.1,0.2,0],[0.9,0.2,0],[0.5,0,0],[0.995,0.63,0],[0.72,0.99,0],[0.5,1,0],[0.28,0.99,0]];verticalLabelPosition=bottom;align=center;verticalAlign=top;shape=mxgraph.kubernetes.icon;prIcon=pod;labelBackgroundColor=none;fillStyle=auto;strokeWidth=4;" parent="126" vertex="1">
                    <mxGeometry x="11.25" y="20" width="37.5" height="40" as="geometry"/>
                </mxCell>
                <mxCell id="129" value="&lt;font color=&quot;#3399ff&quot;&gt;POD&lt;/font&gt;" style="rounded=0;whiteSpace=wrap;html=1;labelBackgroundColor=none;fillStyle=auto;strokeWidth=4;fillColor=none;strokeColor=none;" parent="126" vertex="1">
                    <mxGeometry x="8.75" y="4" width="40" height="20" as="geometry"/>
                </mxCell>
                <mxCell id="138" value="" style="group" parent="117" vertex="1" connectable="0">
                    <mxGeometry x="50" y="110" width="60" height="60" as="geometry"/>
                </mxCell>
                <mxCell id="139" value="" style="rounded=1;whiteSpace=wrap;html=1;labelBackgroundColor=none;fillStyle=auto;fillColor=#bac8d3;strokeWidth=4;strokeColor=none;align=left;" parent="138" vertex="1">
                    <mxGeometry width="60" height="60" as="geometry"/>
                </mxCell>
                <mxCell id="140" value="" style="sketch=0;html=1;dashed=0;whitespace=wrap;fillColor=#2875E2;strokeColor=#ffffff;points=[[0.005,0.63,0],[0.1,0.2,0],[0.9,0.2,0],[0.5,0,0],[0.995,0.63,0],[0.72,0.99,0],[0.5,1,0],[0.28,0.99,0]];verticalLabelPosition=bottom;align=center;verticalAlign=top;shape=mxgraph.kubernetes.icon;prIcon=pod;labelBackgroundColor=none;fillStyle=auto;strokeWidth=4;" parent="138" vertex="1">
                    <mxGeometry x="11.25" y="20" width="37.5" height="40" as="geometry"/>
                </mxCell>
                <mxCell id="141" value="&lt;font color=&quot;#3399ff&quot;&gt;POD&lt;/font&gt;" style="rounded=0;whiteSpace=wrap;html=1;labelBackgroundColor=none;fillStyle=auto;strokeWidth=4;fillColor=none;strokeColor=none;" parent="138" vertex="1">
                    <mxGeometry x="8.75" y="4" width="40" height="20" as="geometry"/>
                </mxCell>
                <mxCell id="159" style="edgeStyle=none;html=1;exitX=1;exitY=0.5;exitDx=0;exitDy=0;strokeWidth=4;fontColor=#3399FF;endArrow=none;endFill=0;" parent="117" source="139" target="118" edge="1">
                    <mxGeometry relative="1" as="geometry"/>
                </mxCell>
                <mxCell id="160" style="edgeStyle=none;html=1;exitX=1;exitY=0.25;exitDx=0;exitDy=0;entryX=0;entryY=0.25;entryDx=0;entryDy=0;strokeWidth=4;fontColor=#3399FF;endArrow=none;endFill=0;" parent="117" source="123" target="127" edge="1">
                    <mxGeometry relative="1" as="geometry"/>
                </mxCell>
                <mxCell id="161" style="edgeStyle=none;html=1;exitX=1;exitY=0.75;exitDx=0;exitDy=0;entryX=0;entryY=0.75;entryDx=0;entryDy=0;strokeWidth=4;fontColor=#3399FF;endArrow=none;endFill=0;" parent="117" source="123" target="127" edge="1">
                    <mxGeometry relative="1" as="geometry"/>
                </mxCell>
                <mxCell id="166" style="edgeStyle=none;html=1;exitX=1;exitY=0.5;exitDx=0;exitDy=0;entryX=0;entryY=0.5;entryDx=0;entryDy=0;strokeWidth=4;fontColor=#3399FF;endArrow=none;endFill=0;" parent="117" source="123" target="127" edge="1">
                    <mxGeometry relative="1" as="geometry"/>
                </mxCell>
                <mxCell id="151" style="edgeStyle=none;html=1;exitX=1;exitY=0.5;exitDx=0;exitDy=0;strokeWidth=4;fontColor=#3399FF;endArrow=none;endFill=0;" parent="1" source="73" edge="1">
                    <mxGeometry relative="1" as="geometry">
                        <mxPoint x="300" y="410.0952380952381" as="targetPoint"/>
                    </mxGeometry>
                </mxCell>
                <mxCell id="163" style="edgeStyle=none;html=1;exitX=1;exitY=0.75;exitDx=0;exitDy=0;strokeWidth=4;fontColor=#3399FF;endArrow=none;endFill=0;" parent="1" source="98" edge="1">
                    <mxGeometry relative="1" as="geometry">
                        <mxPoint x="470" y="425.33333333333337" as="targetPoint"/>
                    </mxGeometry>
                </mxCell>
                <mxCell id="165" style="edgeStyle=none;html=1;exitX=1;exitY=0.75;exitDx=0;exitDy=0;strokeWidth=4;fontColor=#3399FF;endArrow=none;endFill=0;" parent="1" source="106" edge="1">
                    <mxGeometry relative="1" as="geometry">
                        <mxPoint x="470" y="495.33333333333337" as="targetPoint"/>
                    </mxGeometry>
                </mxCell>
                <mxCell id="169" value="" style="endArrow=none;html=1;strokeWidth=4;fontColor=#3399FF;exitX=0.5;exitY=0;exitDx=0;exitDy=0;entryX=0.5;entryY=0;entryDx=0;entryDy=0;" parent="1" source="29" target="118" edge="1">
                    <mxGeometry width="50" height="50" relative="1" as="geometry">
                        <mxPoint x="360" y="550" as="sourcePoint"/>
                        <mxPoint x="410" y="500" as="targetPoint"/>
                        <Array as="points">
                            <mxPoint x="120" y="330"/>
                            <mxPoint x="630" y="330"/>
                        </Array>
                    </mxGeometry>
                </mxCell>
                <mxCell id="173" style="edgeStyle=none;html=1;exitX=0.5;exitY=0;exitDx=0;exitDy=0;strokeWidth=4;fontColor=#3399FF;endArrow=none;endFill=0;" parent="1" source="68" edge="1">
                    <mxGeometry relative="1" as="geometry">
                        <mxPoint x="290.1428571428571" y="330" as="targetPoint"/>
                    </mxGeometry>
                </mxCell>
                <mxCell id="174" style="edgeStyle=none;html=1;exitX=0.5;exitY=0;exitDx=0;exitDy=0;strokeWidth=4;fontColor=#3399FF;endArrow=none;endFill=0;" parent="1" source="93" edge="1">
                    <mxGeometry relative="1" as="geometry">
                        <mxPoint x="460.1428571428571" y="330" as="targetPoint"/>
                    </mxGeometry>
                </mxCell>
                <mxCell id="175" style="edgeStyle=none;html=1;exitX=0.5;exitY=1;exitDx=0;exitDy=0;strokeWidth=4;fontColor=#3399FF;endArrow=none;endFill=0;" parent="1" source="9" edge="1">
                    <mxGeometry relative="1" as="geometry">
                        <mxPoint x="251.57142857142867" y="330" as="targetPoint"/>
                    </mxGeometry>
                </mxCell>
                <mxCell id="176" style="edgeStyle=none;html=1;exitX=0.5;exitY=1;exitDx=0;exitDy=0;strokeWidth=4;fontColor=#3399FF;endArrow=none;endFill=0;" parent="1" source="18" edge="1">
                    <mxGeometry relative="1" as="geometry">
                        <mxPoint x="504.42857142857156" y="330" as="targetPoint"/>
                    </mxGeometry>
                </mxCell>
                <mxCell id="180" style="edgeStyle=none;html=1;entryX=0;entryY=0.5;entryDx=0;entryDy=0;strokeWidth=2;strokeColor=#F0F0F0;endArrow=none;endFill=0;" edge="1" parent="1" source="177" target="5">
                    <mxGeometry relative="1" as="geometry"/>
                </mxCell>
                <mxCell id="177" value="UI" style="rounded=1;whiteSpace=wrap;html=1;labelBackgroundColor=none;fillStyle=auto;fillColor=#bac8d3;strokeWidth=4;strokeColor=none;align=center;" vertex="1" parent="1">
                    <mxGeometry x="70" y="10" width="60" height="30" as="geometry"/>
                </mxCell>
                <mxCell id="178" value="API" style="rounded=1;whiteSpace=wrap;html=1;labelBackgroundColor=none;fillStyle=auto;fillColor=#bac8d3;strokeWidth=4;strokeColor=none;align=center;" vertex="1" parent="1">
                    <mxGeometry x="70" y="50" width="60" height="30" as="geometry"/>
                </mxCell>
                <mxCell id="179" value="CLI&lt;br&gt;&lt;div style=&quot;&quot;&gt;&lt;span style=&quot;background-color: initial;&quot;&gt;KUBECTL&lt;/span&gt;&lt;/div&gt;" style="rounded=1;whiteSpace=wrap;html=1;labelBackgroundColor=none;fillStyle=auto;fillColor=#bac8d3;strokeWidth=4;strokeColor=none;align=center;" vertex="1" parent="1">
                    <mxGeometry x="70" y="90" width="60" height="40" as="geometry"/>
                </mxCell>
                <mxCell id="181" style="edgeStyle=none;html=1;entryX=0;entryY=0.5;entryDx=0;entryDy=0;strokeWidth=2;strokeColor=#F0F0F0;endArrow=none;endFill=0;exitX=1;exitY=0.5;exitDx=0;exitDy=0;" edge="1" parent="1" source="178" target="5">
                    <mxGeometry relative="1" as="geometry">
                        <mxPoint x="140" y="44.25925925925924" as="sourcePoint"/>
                        <mxPoint x="191" y="60" as="targetPoint"/>
                    </mxGeometry>
                </mxCell>
                <mxCell id="182" style="edgeStyle=none;html=1;entryX=0;entryY=0.5;entryDx=0;entryDy=0;strokeWidth=2;strokeColor=#F0F0F0;endArrow=none;endFill=0;exitX=1;exitY=0.5;exitDx=0;exitDy=0;" edge="1" parent="1" source="179" target="5">
                    <mxGeometry relative="1" as="geometry">
                        <mxPoint x="150" y="54.25925925925924" as="sourcePoint"/>
                        <mxPoint x="201" y="70" as="targetPoint"/>
                    </mxGeometry>
                </mxCell>
            </root>
        </mxGraphModel>
    </diagram>
</mxfile>